# xmcd CD database file
#
# Track frame offsets:
#	175
#	24506
#	53986
#
# Disc length: 1035 seconds
#
# Revision: 3
# Processed by: cddbd v1.5.2PL0 Copyright (c) Steve Scherf et al.
# Submitted via: CDex 1.70beta2
#
DISCID=1e040903
DTITLE=Suzuki Ami - can't stop the DISCO 
DYEAR=2008
DGENRE=JPop
TTITLE0=can't stop the DISCO 
TTITLE1=climb up to the top
TTITLE2=SUPER MUSIC MAKER (SA'08S/A mix)
EXTD=YEAR: 2008
EXTT0=
EXTT1=
EXTT2=
PLAYORDER=
